<?xml version="1.0" encoding="UTF-8"?>
<svg id="Layer_2" data-name="Layer 2" xmlns="http://www.w3.org/2000/svg" xmlns:xlink="http://www.w3.org/1999/xlink" viewBox="0 0 2055.69 272.24">
  <defs>
    <style>
      .cls-1 {
        fill: url(#linear-gradient-8);
      }

      .cls-2 {
        fill: url(#linear-gradient-7);
      }

      .cls-3 {
        fill: url(#linear-gradient-5);
      }

      .cls-4 {
        fill: url(#linear-gradient-6);
      }

      .cls-5 {
        fill: url(#linear-gradient-9);
      }

      .cls-6 {
        fill: url(#linear-gradient-4);
      }

      .cls-7 {
        fill: url(#linear-gradient-3);
      }

      .cls-8 {
        fill: url(#linear-gradient-2);
      }

      .cls-9 {
        fill: url(#linear-gradient);
      }

      .cls-10, .cls-11 {
        isolation: isolate;
      }

      .cls-11 {
        font-family: Archivo-SemiBold, Archivo;
        font-size: 82px;
        font-variation-settings: 'wght' 600, 'wdth' 100;
        font-weight: 600;
        glyph-orientation-vertical: 0deg;
        text-orientation: upright;
        writing-mode: tb;
      }

      .cls-12 {
        fill: url(#linear-gradient-10);
      }

      .cls-13 {
        fill: url(#linear-gradient-11);
      }

      .cls-14 {
        fill: url(#linear-gradient-12);
      }

      .cls-15 {
        fill: url(#linear-gradient-13);
      }

      .cls-16 {
        fill: url(#linear-gradient-19);
      }

      .cls-17 {
        fill: url(#linear-gradient-14);
      }

      .cls-18 {
        fill: url(#linear-gradient-21);
      }

      .cls-19 {
        fill: url(#linear-gradient-20);
      }

      .cls-20 {
        fill: url(#linear-gradient-22);
      }

      .cls-21 {
        fill: url(#linear-gradient-23);
      }

      .cls-22 {
        fill: url(#linear-gradient-28);
      }

      .cls-23 {
        fill: url(#linear-gradient-25);
      }

      .cls-24 {
        fill: url(#linear-gradient-32);
      }

      .cls-25 {
        fill: url(#linear-gradient-31);
      }

      .cls-26 {
        fill: url(#linear-gradient-33);
      }

      .cls-27 {
        fill: url(#linear-gradient-30);
      }

      .cls-28 {
        fill: url(#linear-gradient-15);
      }

      .cls-29 {
        fill: url(#linear-gradient-16);
      }

      .cls-30 {
        fill: url(#linear-gradient-17);
      }

      .cls-31 {
        fill: url(#linear-gradient-18);
      }

      .cls-32 {
        fill: url(#linear-gradient-27);
      }

      .cls-33 {
        fill: url(#linear-gradient-24);
      }

      .cls-34 {
        fill: url(#linear-gradient-26);
      }

      .cls-35 {
        fill: url(#linear-gradient-29);
      }
    </style>
    <linearGradient id="linear-gradient" x1="505.06" y1="-519.68" x2="593.45" y2="-519.68" gradientTransform="translate(0 -464.7) scale(1 -1)" gradientUnits="userSpaceOnUse">
      <stop offset="0" stop-color="#fff"/>
      <stop offset="0" stop-color="#000"/>
      <stop offset="1" stop-color="#000"/>
    </linearGradient>
    <linearGradient id="linear-gradient-2" x1="505.01" y1="-599.22" x2="816.51" y2="-599.22" xlink:href="#linear-gradient"/>
    <linearGradient id="linear-gradient-3" x1="402.26" y1="-599.18" x2="457.34" y2="-599.18" xlink:href="#linear-gradient"/>
    <linearGradient id="linear-gradient-4" x1="0" y1="-599.2" x2="389.81" y2="-599.2" xlink:href="#linear-gradient"/>
    <linearGradient id="linear-gradient-5" x1="867.13" y1="-706.06" x2="899.8" y2="-706.06" xlink:href="#linear-gradient"/>
    <linearGradient id="linear-gradient-6" x1="921.83" y1="-705.48" x2="954.38" y2="-705.48" xlink:href="#linear-gradient"/>
    <linearGradient id="linear-gradient-7" x1="976.94" y1="-705.5" x2="1003.27" y2="-705.5" xlink:href="#linear-gradient"/>
    <linearGradient id="linear-gradient-8" x1="1020.38" y1="-705.53" x2="1060.65" y2="-705.53" xlink:href="#linear-gradient"/>
    <linearGradient id="linear-gradient-9" x1="1078.95" y1="-705.49" x2="1115.18" y2="-705.49" xlink:href="#linear-gradient"/>
    <linearGradient id="linear-gradient-10" x1="1135.91" y1="-705.5" x2="1170.21" y2="-705.5" xlink:href="#linear-gradient"/>
    <linearGradient id="linear-gradient-11" x1="1189.11" y1="-705.48" x2="1194.78" y2="-705.48" xlink:href="#linear-gradient"/>
    <linearGradient id="linear-gradient-12" x1="1217.38" y1="-705.48" x2="1249.93" y2="-705.48" xlink:href="#linear-gradient"/>
    <linearGradient id="linear-gradient-13" x1="1270.84" y1="-705.53" x2="1308.08" y2="-705.53" xlink:href="#linear-gradient"/>
    <linearGradient id="linear-gradient-14" x1="1358.16" y1="-705.53" x2="1398.43" y2="-705.53" xlink:href="#linear-gradient"/>
    <linearGradient id="linear-gradient-15" x1="1419.17" y1="-705.49" x2="1449.89" y2="-705.49" xlink:href="#linear-gradient"/>
    <linearGradient id="linear-gradient-16" x1="1463.45" y1="-706.04" x2="1494.17" y2="-706.04" xlink:href="#linear-gradient"/>
    <linearGradient id="linear-gradient-17" x1="1507.34" y1="-705.48" x2="1547.61" y2="-705.48" xlink:href="#linear-gradient"/>
    <linearGradient id="linear-gradient-18" x1="1568.46" y1="-705.44" x2="1602.14" y2="-705.44" xlink:href="#linear-gradient"/>
    <linearGradient id="linear-gradient-19" x1="1618.43" y1="-705.46" x2="1651.92" y2="-705.46" xlink:href="#linear-gradient"/>
    <linearGradient id="linear-gradient-20" x1="1670.99" y1="-706.02" x2="1703.66" y2="-706.02" xlink:href="#linear-gradient"/>
    <linearGradient id="linear-gradient-21" x1="1725.7" y1="-705.44" x2="1758.25" y2="-705.44" xlink:href="#linear-gradient"/>
    <linearGradient id="linear-gradient-22" x1="1782.06" y1="-705.44" x2="1787.73" y2="-705.44" xlink:href="#linear-gradient"/>
    <linearGradient id="linear-gradient-23" x1="1806.86" y1="-705.46" x2="1840.35" y2="-705.46" xlink:href="#linear-gradient"/>
    <linearGradient id="linear-gradient-24" x1="1860.32" y1="-705.44" x2="1865.98" y2="-705.44" xlink:href="#linear-gradient"/>
    <linearGradient id="linear-gradient-25" x1="1889.08" y1="-705.46" x2="1919.49" y2="-705.46" xlink:href="#linear-gradient"/>
    <linearGradient id="linear-gradient-26" x1="1938.87" y1="-705.51" x2="1970.95" y2="-705.51" xlink:href="#linear-gradient"/>
    <linearGradient id="linear-gradient-27" x1="864.22" y1="-551.4" x2="1009.77" y2="-551.4" xlink:href="#linear-gradient"/>
    <linearGradient id="linear-gradient-28" x1="1030.15" y1="-551.4" x2="1155.17" y2="-551.4" xlink:href="#linear-gradient"/>
    <linearGradient id="linear-gradient-29" x1="1168.48" y1="-551.36" x2="1315.21" y2="-551.36" xlink:href="#linear-gradient"/>
    <linearGradient id="linear-gradient-30" x1="1327.72" y1="-552.03" x2="1474.49" y2="-552.03" xlink:href="#linear-gradient"/>
    <linearGradient id="linear-gradient-31" x1="1494.2" y1="-551.17" x2="1652.38" y2="-551.17" xlink:href="#linear-gradient"/>
    <linearGradient id="linear-gradient-32" x1="1678.68" y1="-551.4" x2="1818.27" y2="-551.4" xlink:href="#linear-gradient"/>
    <linearGradient id="linear-gradient-33" x1="1845.16" y1="-551.4" x2="1970.18" y2="-551.4" xlink:href="#linear-gradient"/>
  </defs>
  <g id="Layer_2-2" data-name="Layer 2">
    <g id="Layer_1-2" data-name="Layer 1-2">
      <path class="cls-9" d="M593.45.03l-88.39,109.91V.03h88.39Z"/>
      <path class="cls-8" d="M788.91.03h-132.9l-93.83,109.91-34.06,40.9-23.11,27.73v90.25c.08.08.16.12.23.2h94.18c.08-.12.11-.27.19-.39l-55.73-91.89,34.57-40.9,83.57,132.94.19.19h126.65c15.3,0,27.65-12.39,27.65-27.65V27.72c.04-15.3-12.31-27.69-27.61-27.69h0Z"/>
      <path class="cls-7" d="M457.33,268.89V.03h-27.34c-15.3,0-27.73,12.39-27.73,27.65v213.6c0,15.3,12.43,27.65,27.73,27.65h27.27s.04,0,.08-.04h0Z"/>
      <path class="cls-6" d="M389.8,94.71v85.4c0,1.9-1.55,3.45-3.46,3.45H15.77c-8.74,0-15.77-7.03-15.77-15.77v-66.53c0-8.74,7.03-15.81,15.77-15.81h364.71c-4.11,5.4-46.8,57.83-145.83,67.96-63.73,6.53-106.84-4.54-125.24-9.32l-.78-.2c-64.12-16.54-93.56,15.96-94.8,17.4-2.33,2.68-2.09,6.72.58,9.13,1.24,1.13,2.8,1.63,4.35,1.63,1.75,0,3.57-.7,4.82-2.14,1.05-1.16,25.79-27.73,81.79-13.4l.78.19c19.07,4.93,63.81,16.47,129.87,9.71,99.77-10.37,144.94-60.55,153.79-71.73v.03Z"/>
      <path class="cls-3" d="M872.76,220.14v25.52c0,2.99.58,5.48,1.71,7.49,1.67,2.99,4.51,4.51,8.51,4.51,4.78,0,8.04-1.63,9.75-4.85.93-1.74,1.4-4.11,1.4-7.1v-25.52h5.67v23.18c0,5.09-.7,8.97-2.06,11.73-2.53,4.97-7.27,7.49-14.29,7.49s-11.73-2.48-14.26-7.49c-1.36-2.72-2.06-6.64-2.06-11.73v-23.18h5.63v-.04h0Z"/>
      <path class="cls-4" d="M921.84,220.14h6.6l20.58,33.36v-33.36h5.36v41.29h-6.29l-20.9-33.32v33.32h-5.36v-41.29h.01Z"/>
      <path class="cls-2" d="M976.95,220.14h5.59v36.39h20.73v4.93h-26.33v-41.32h.01Z"/>
      <path class="cls-1" d="M1056.53,226.05c2.76,3.65,4.12,8.31,4.12,14.02,0,6.18-1.56,11.3-4.7,15.38-3.69,4.78-8.89,7.19-15.73,7.19-6.36,0-11.34-2.1-14.99-6.29-3.26-4.04-4.85-9.17-4.85-15.34,0-5.59,1.4-10.37,4.16-14.33,3.57-5.09,8.82-7.65,15.81-7.65s12.66,2.33,16.19,7.03h-.01ZM1051.59,252.34c2.21-3.54,3.3-7.61,3.3-12.2,0-4.85-1.28-8.78-3.81-11.73-2.52-2.95-6.02-4.43-10.41-4.43s-7.77,1.48-10.45,4.39c-2.72,2.95-4.04,7.26-4.04,12.97,0,4.58,1.16,8.43,3.45,11.58,2.33,3.15,6.06,4.7,11.27,4.7,4.89.04,8.46-1.75,10.68-5.28h.01Z"/>
      <path class="cls-5" d="M1110.01,223.13c2.83,2.76,4.43,5.91,4.74,9.4h-5.44c-.63-2.68-1.83-4.78-3.61-6.33-1.82-1.55-4.35-2.33-7.65-2.33-4,0-7.22,1.44-9.67,4.27-2.45,2.88-3.69,7.27-3.69,13.17,0,4.85,1.13,8.78,3.34,11.77,2.21,3.03,5.52,4.51,9.94,4.51,4.04,0,7.15-1.59,9.24-4.73,1.13-1.67,1.94-3.85,2.53-6.57h5.44c-.47,4.35-2.06,8.01-4.78,10.95-3.22,3.54-7.61,5.32-13.13,5.32-4.74,0-8.74-1.44-11.96-4.35-4.23-3.85-6.36-9.79-6.36-17.83,0-6.1,1.59-11.1,4.78-14.99,3.45-4.23,8.19-6.37,14.25-6.37,5.2,0,9.2,1.36,12.04,4.11h-.01Z"/>
      <path class="cls-12" d="M1135.91,220.14h5.44v20.2l20.66-20.2h7.81l-17.63,16.66,18.02,24.63h-7.3l-14.8-20.74-6.72,6.37v14.41h-5.44v-41.32h-.04Z"/>
      <path class="cls-13" d="M1189.11,220.14h5.67v41.29h-5.67v-41.29h0Z"/>
      <path class="cls-14" d="M1217.39,220.14h6.6l20.58,33.36v-33.36h5.36v41.29h-6.29l-20.9-33.32v33.32h-5.36v-41.29h.01Z"/>
      <path class="cls-15" d="M1299.99,221.31c4.04,2.18,6.53,5.94,7.42,11.34h-5.55c-.66-3.03-2.02-5.2-4.11-6.6-2.1-1.4-4.7-2.06-7.85-2.06-3.72,0-6.91,1.44-9.47,4.31s-3.84,7.15-3.84,12.82c0,4.89,1.05,8.89,3.18,12,2.1,3.07,5.55,4.62,10.33,4.62,3.65,0,6.68-1.09,9.08-3.26,2.41-2.18,3.61-5.67,3.69-10.48h-12.93v-4.63h18.14v22.1h-3.61l-1.36-5.32c-1.86,2.1-3.49,3.54-4.97,4.31-2.41,1.4-5.47,2.1-9.2,2.1-4.82,0-8.93-1.59-12.43-4.74-3.77-3.96-5.67-9.44-5.67-16.35s1.86-12.43,5.56-16.51c3.49-3.89,8.04-5.86,13.63-5.86,3.88-.04,7.18.7,9.98,2.21h-.02Z"/>
      <path class="cls-17" d="M1394.32,226.05c2.72,3.65,4.11,8.31,4.11,14.02,0,6.18-1.55,11.3-4.7,15.38-3.69,4.78-8.89,7.19-15.73,7.19-6.37,0-11.34-2.1-14.99-6.29-3.26-4.04-4.85-9.17-4.85-15.34,0-5.59,1.4-10.37,4.16-14.33,3.57-5.09,8.81-7.65,15.81-7.65s12.7,2.33,16.19,7.03h0ZM1389.39,252.34c2.21-3.54,3.3-7.61,3.3-12.2,0-4.85-1.28-8.78-3.81-11.73s-6.02-4.43-10.41-4.43-7.77,1.48-10.45,4.39c-2.72,2.95-4.04,7.26-4.04,12.97,0,4.58,1.17,8.43,3.46,11.58,2.33,3.15,6.06,4.7,11.26,4.7,4.93.04,8.51-1.75,10.68-5.28h.01Z"/>
      <path class="cls-28" d="M1419.18,220.14h18.48c3.65,0,6.6,1.05,8.85,3.11,2.26,2.06,3.38,4.97,3.38,8.73,0,3.22-1.01,6.02-2.99,8.43-2.02,2.41-5.09,3.57-9.2,3.57h-12.9v17.47h-5.59v-41.32h-.04.01ZM1440.89,225.81c-1.24-.58-2.91-.85-5.05-.85h-11.07v14.33h11.07c2.48,0,4.51-.54,6.06-1.59s2.33-2.95,2.33-5.67c0-3.07-1.13-5.13-3.34-6.21h0Z"/>
      <path class="cls-29" d="M1463.45,220.69h18.49c3.65,0,6.6,1.05,8.85,3.1,2.25,2.06,3.38,4.97,3.38,8.74,0,3.22-1.01,6.02-2.99,8.43-2.02,2.41-5.08,3.57-9.2,3.57h-12.89v17.47h-5.59v-41.32h-.05ZM1485.16,226.35c-1.24-.58-2.92-.85-5.05-.85h-11.07v14.33h11.07c2.49,0,4.51-.55,6.06-1.59,1.55-1.05,2.33-2.95,2.33-5.67,0-3.07-1.13-5.13-3.34-6.21h0Z"/>
      <path class="cls-30" d="M1543.49,226.01c2.72,3.65,4.12,8.31,4.12,14.02,0,6.18-1.56,11.3-4.7,15.38-3.69,4.78-8.9,7.18-15.73,7.18-6.37,0-11.34-2.09-14.99-6.29-3.26-4.04-4.85-9.16-4.85-15.34,0-5.59,1.4-10.37,4.16-14.33,3.57-5.08,8.82-7.65,15.81-7.65s12.7,2.33,16.19,7.03h-.01ZM1538.56,252.3c2.21-3.53,3.3-7.61,3.3-12.19,0-4.85-1.28-8.78-3.81-11.73-2.52-2.95-6.02-4.43-10.41-4.43s-7.77,1.47-10.45,4.39c-2.68,2.91-4.04,7.26-4.04,12.97,0,4.58,1.16,8.43,3.45,11.57,2.33,3.15,6.06,4.7,11.27,4.7,4.93.04,8.46-1.74,10.68-5.28h.01Z"/>
      <path class="cls-31" d="M1568.46,220.1h18.76c3.11,0,5.64.46,7.65,1.36,3.81,1.74,5.71,5.01,5.71,9.74,0,2.49-.51,4.51-1.55,6.06-1.01,1.59-2.45,2.83-4.27,3.8,1.59.66,2.83,1.52,3.65,2.6.81,1.09,1.28,2.8,1.36,5.2l.19,5.55c.04,1.59.19,2.76.39,3.54.35,1.32.93,2.14,1.79,2.53v.93h-6.88c-.19-.35-.35-.82-.47-1.36-.11-.55-.19-1.64-.27-3.27l-.35-6.88c-.11-2.68-1.09-4.51-2.91-5.43-1.05-.51-2.68-.78-4.9-.78h-12.31v17.71h-5.59v-41.32.02ZM1586.64,239.02c2.56,0,4.58-.54,6.06-1.59,1.47-1.05,2.21-2.95,2.21-5.67,0-2.95-1.05-4.93-3.11-6.02-1.13-.54-2.6-.85-4.46-.85h-13.28v14.1h12.58v.04h0Z"/>
      <path class="cls-16" d="M1651.92,220.1v4.93h-13.91v36.39h-5.67v-36.39h-13.91v-4.93h33.49Z"/>
      <path class="cls-19" d="M1676.62,220.1v25.52c0,2.99.58,5.47,1.71,7.49,1.67,2.99,4.51,4.51,8.51,4.51,4.78,0,8.04-1.63,9.75-4.85.93-1.75,1.4-4.12,1.4-7.11v-25.52h5.67v23.19c0,5.09-.7,8.97-2.06,11.73-2.53,4.97-7.27,7.49-14.29,7.49s-11.73-2.48-14.26-7.49c-1.36-2.72-2.06-6.64-2.06-11.73v-23.19h5.63v-.04h0Z"/>
      <path class="cls-18" d="M1725.71,220.1h6.6l20.58,33.36v-33.36h5.36v41.28h-6.29l-20.9-33.32v33.32h-5.36v-41.28h.01Z"/>
      <path class="cls-20" d="M1782.06,220.1h5.67v41.28h-5.67v-41.28Z"/>
      <path class="cls-21" d="M1840.35,220.1v4.93h-13.91v36.39h-5.67v-36.39h-13.91v-4.93h33.49Z"/>
      <path class="cls-33" d="M1860.32,220.1h5.67v41.28h-5.67v-41.28Z"/>
      <path class="cls-23" d="M1889.09,220.1h29.98v5.05h-24.51v12.55h22.64v4.78h-22.64v14.02h24.93v4.93h-30.37v-41.32h-.04.01Z"/>
      <path class="cls-34" d="M1944.16,248.06c.12,2.33.66,4.23,1.59,5.71,1.79,2.76,4.93,4.11,9.44,4.11,2.02,0,3.88-.31,5.52-.9,3.22-1.16,4.81-3.22,4.81-6.25,0-2.25-.7-3.84-2.06-4.82-1.4-.93-3.54-1.74-6.48-2.44l-5.44-1.28c-3.54-.82-6.06-1.75-7.49-2.72-2.56-1.71-3.81-4.31-3.81-7.73,0-3.73,1.24-6.76,3.73-9.13,2.48-2.36,6.02-3.57,10.6-3.57,4.2,0,7.81,1.05,10.72,3.15,2.95,2.1,4.43,5.44,4.43,10.02h-5.24c-.27-2.21-.85-3.92-1.71-5.09-1.63-2.17-4.43-3.22-8.31-3.22-3.15,0-5.44.7-6.83,2.09s-2.06,2.99-2.06,4.82c0,2.02.82,3.49,2.45,4.43,1.05.58,3.49,1.36,7.27,2.25l5.59,1.32c2.72.62,4.78,1.52,6.26,2.6,2.53,1.94,3.81,4.74,3.81,8.39,0,4.58-1.64,7.84-4.85,9.83-3.27,1.98-7.03,2.95-11.3,2.95-5.01,0-8.93-1.32-11.77-3.92-2.83-2.6-4.23-6.14-4.16-10.6h5.32-.03Z"/>
      <path class="cls-32" d="M1006.35,10.97h-44.54l-63.69,62.38V10.97h-33.9v151.42h33.9v-50.64l16.39-15.49.08.11,24.27-22.83-.11-.19,67.61-62.38h-.01ZM947.28,84.02l-24.43,22.99,42.64,55.42h44.28s-62.49-78.41-62.49-78.41Z"/>
      <path class="cls-22" d="M1143.98,96.26h-80.12v38.91h91.31v27.22h-125.02V11.01h120.97v26.8h-87.3v32.16h80.12v26.29h.04Z"/>
      <path class="cls-35" d="M1315.21,10.97l-55.19,94.49v56.9h-34.45v-56.9l-57.09-94.49h40.63l34.25,65.95,32.78-65.95h39.07,0Z"/>
      <path class="cls-27" d="M1451.3,151.09c-12.31,10.33-28.04,15.49-47.23,15.49-23.72,0-42.37-6.99-55.96-20.97-13.59-14.02-20.39-33.28-20.39-57.71,0-26.45,7.73-46.8,23.19-61.13,13.43-12.46,30.52-18.68,51.26-18.68,27.77,0,48.04,8.35,60.9,25.05,7.07,9.4,10.88,18.8,11.42,28.23h-34.45c-2.25-7.26-5.13-12.74-8.62-16.43-6.26-6.56-15.57-9.86-27.89-9.86s-22.41,4.62-29.67,13.9c-7.22,9.29-10.83,22.41-10.83,39.38s3.81,29.71,11.46,38.18c7.65,8.47,17.36,12.7,29.16,12.7s21.29-3.61,27.66-10.87c3.49-3.89,6.41-9.75,8.73-17.56h34.14c-3.03,16.51-10.65,29.94-22.88,40.28h0Z"/>
      <path class="cls-25" d="M1573.35,166.59c-23.57,0-41.59-5.91-54.06-17.67-16.7-14.45-25.09-35.26-25.09-62.45s8.35-48.55,25.09-62.45c12.46-11.77,30.48-17.67,54.06-17.67s41.59,5.91,54.06,17.67c16.62,13.9,24.97,34.72,24.97,62.45s-8.31,48-24.97,62.45c-12.47,11.81-30.45,17.67-54.06,17.67ZM1605.94,125.93c8-9.24,11.96-22.41,11.96-39.46s-4-30.1-12.04-39.38c-8-9.28-18.83-13.9-32.51-13.9s-24.54,4.62-32.66,13.86c-8.11,9.24-12.19,22.41-12.19,39.45s4.08,30.22,12.19,39.46c8.12,9.24,19.03,13.86,32.66,13.86,13.67-.04,24.55-4.66,32.58-13.9h.01Z"/>
      <path class="cls-24" d="M1749.75,162.39h-71.07V11.01h71.07c10.21.16,18.72,1.24,25.52,3.3,11.57,3.49,20.93,9.9,28.08,19.22,5.74,7.53,9.67,15.69,11.77,24.43,2.1,8.78,3.15,17.13,3.15,25.05,0,20.12-4.39,37.17-13.2,51.15-11.96,18.79-30.37,28.23-55.3,28.23h-.02ZM1775.38,49.61c-5.32-8.23-15.77-12.31-31.46-12.31h-31.77v98.8h31.77c16.28,0,27.61-7.38,34.02-22.09,3.49-8.08,5.24-17.71,5.24-28.86.04-15.42-2.6-27.26-7.81-35.53h.01Z"/>
      <path class="cls-26" d="M1959,96.26h-80.12v38.91h91.3v27.22h-125.02V11.01h120.98v26.8h-87.31v32.16h80.12v26.29h.05Z"/>
      <g class="cls-10">
        <text class="cls-11" transform="translate(2014.69 0) scale(1 .83)"><tspan x="0" y="0">H</tspan></text>
        <text class="cls-11" transform="translate(2014.69 68.06) scale(1 .83)"><tspan x="0" y="0">ELP</tspan></text>
      </g>
    </g>
  </g>
</svg>