<?xml version="1.0" encoding="UTF-8"?>
<svg id="Layer_2" data-name="Layer 2" xmlns="http://www.w3.org/2000/svg" viewBox="0 0 2057.9 269">
  <defs>
    <style>
      .cls-1 {
        isolation: isolate;
      }

      .cls-2 {
        fill: #fff;
      }

      .cls-3 {
        fill: #ffce20;
      }
    </style>
  </defs>
  <g id="Layer_2-2" data-name="Layer 2">
    <g id="Layer_2-2" data-name="Layer 2-2">
      <g id="Layer_1-2" data-name="Layer 1-2">
        <path class="cls-2" d="M872.9,199.4v25.5c0,3,.6,5.5,1.7,7.5,1.7,3,4.5,4.5,8.5,4.5s8-1.6,9.8-4.9c.9-1.7,1.4-4.1,1.4-7.1v-25.5h5.7v23.2c0,5.1-.7,9-2.1,11.7-2.5,5-7.3,7.5-14.3,7.5s-11.7-2.5-14.3-7.5c-1.4-2.7-2.1-6.6-2.1-11.7v-23.2h5.7,0Z"/>
        <path class="cls-2" d="M922,199.4h6.6l20.6,33.4v-33.4h5.4v41.3h-6.3l-20.9-33.3v33.3h-5.4v-41.3h0Z"/>
        <path class="cls-2" d="M977.1,199.4h5.6v36.4h20.7v4.9h-26.3v-41.3h0Z"/>
        <path class="cls-2" d="M1056.7,205.3c2.8,3.6,4.1,8.3,4.1,14s-1.6,11.3-4.7,15.4c-3.7,4.8-8.9,7.2-15.7,7.2s-11.3-2.1-15-6.3c-3.3-4-4.8-9.2-4.8-15.3s1.4-10.4,4.2-14.3c3.6-5.1,8.8-7.6,15.8-7.6s12.7,2.3,16.2,7h0l-.1-.1h0ZM1051.8,231.6c2.2-3.5,3.3-7.6,3.3-12.2s-1.3-8.8-3.8-11.7-6-4.4-10.4-4.4-7.8,1.5-10.4,4.4c-2.7,2.9-4,7.3-4,13s1.2,8.4,3.4,11.6c2.3,3.1,6.1,4.7,11.3,4.7,4.9,0,8.5-1.8,10.7-5.3h0l-.1-.1Z"/>
        <path class="cls-2" d="M1110.2,202.4c2.8,2.8,4.4,5.9,4.7,9.4h-5.4c-.6-2.7-1.8-4.8-3.6-6.3-1.8-1.6-4.3-2.3-7.7-2.3s-7.2,1.4-9.7,4.3c-2.4,2.9-3.7,7.3-3.7,13.2s1.1,8.8,3.3,11.8c2.2,3,5.5,4.5,9.9,4.5s7.2-1.6,9.2-4.7c1.1-1.7,1.9-3.9,2.5-6.6h5.4c-.5,4.4-2.1,8-4.8,10.9-3.2,3.5-7.6,5.3-13.1,5.3s-8.7-1.4-12-4.4c-4.2-3.9-6.4-9.8-6.4-17.8s1.6-11.1,4.8-15c3.4-4.2,8.2-6.4,14.2-6.4s9.2,1.4,12,4.1h.4,0Z"/>
        <path class="cls-2" d="M1136.1,199.4h5.4v20.2l20.7-20.2h7.8l-17.6,16.7,18,24.6h-7.3l-14.8-20.7-6.7,6.4v14.4h-5.4v-41.3h0l-.1-.1h0Z"/>
        <path class="cls-2" d="M1189.3,199.4h5.7v41.3h-5.7v-41.3Z"/>
        <path class="cls-2" d="M1217.5,199.4h6.6l20.6,33.4v-33.4h5.4v41.3h-6.3l-20.9-33.3v33.3h-5.4v-41.3h0Z"/>
        <path class="cls-2" d="M1300.1,200.6c4,2.2,6.5,5.9,7.4,11.3h-5.6c-.7-3-2-5.2-4.1-6.6-2.1-1.4-4.7-2.1-7.8-2.1s-6.9,1.4-9.5,4.3-3.8,7.1-3.8,12.8,1.1,8.9,3.2,12,5.6,4.6,10.3,4.6,6.7-1.1,9.1-3.3,3.6-5.7,3.7-10.5h-12.9v-4.6h18.1v22.1h-3.6l-1.4-5.3c-1.9,2.1-3.5,3.5-5,4.3-2.4,1.4-5.5,2.1-9.2,2.1s-8.9-1.6-12.4-4.7c-3.8-4-5.7-9.4-5.7-16.4s1.9-12.4,5.6-16.5c3.5-3.9,8-5.9,13.6-5.9,3.9,0,7.2.7,10,2.2h0v.2h0Z"/>
        <path class="cls-2" d="M1394.5,205.3c2.7,3.6,4.1,8.3,4.1,14s-1.6,11.3-4.7,15.4c-3.7,4.8-8.9,7.2-15.7,7.2s-11.3-2.1-15-6.3c-3.3-4-4.8-9.2-4.8-15.3s1.4-10.4,4.2-14.3c3.6-5.1,8.8-7.6,15.8-7.6s12.7,2.3,16.2,7h0l-.1-.1h0ZM1389.5,231.6c2.2-3.5,3.3-7.6,3.3-12.2s-1.3-8.8-3.8-11.7-6-4.4-10.4-4.4-7.8,1.5-10.4,4.4c-2.7,2.9-4,7.3-4,13s1.2,8.4,3.5,11.6c2.3,3.1,6.1,4.7,11.3,4.7,4.9,0,8.5-1.8,10.7-5.3h0l-.2-.1Z"/>
        <path class="cls-2" d="M1419.3,199.4h18.5c3.7,0,6.6,1.1,8.8,3.1,2.3,2.1,3.4,5,3.4,8.7s-1,6-3,8.4-5.1,3.6-9.2,3.6h-12.9v17.5h-5.6v-41.3h0ZM1441,205.1c-1.2-.6-2.9-.9-5.1-.9h-11.1v14.3h11.1c2.5,0,4.5-.5,6.1-1.6s2.3-2.9,2.3-5.7-1.1-5.1-3.3-6.2h0v.1h0Z"/>
        <path class="cls-2" d="M1463.6,199.9h18.5c3.7,0,6.6,1.1,8.8,3.1,2.2,2.1,3.4,5,3.4,8.7s-1,6-3,8.4-5.1,3.6-9.2,3.6h-12.9v17.5h-5.6v-41.3h0ZM1485.3,205.6c-1.2-.6-2.9-.9-5.1-.9h-11.1v14.3h11.1c2.5,0,4.5-.6,6.1-1.6,1.6-1.1,2.3-2.9,2.3-5.7s-1.1-5.1-3.3-6.2h0v.1h0Z"/>
        <path class="cls-2" d="M1543.6,205.3c2.7,3.6,4.1,8.3,4.1,14s-1.6,11.3-4.7,15.4c-3.7,4.8-8.9,7.2-15.7,7.2s-11.3-2.1-15-6.3c-3.3-4-4.8-9.2-4.8-15.3s1.4-10.4,4.2-14.3c3.6-5.1,8.8-7.6,15.8-7.6s12.7,2.3,16.2,7h0l-.1-.1h0ZM1538.7,231.6c2.2-3.5,3.3-7.6,3.3-12.2s-1.3-8.8-3.8-11.7-6-4.4-10.4-4.4-7.8,1.5-10.4,4.4c-2.7,2.9-4,7.3-4,13s1.2,8.4,3.4,11.6c2.3,3.1,6.1,4.7,11.3,4.7,4.9,0,8.5-1.7,10.7-5.3h0l-.1-.1Z"/>
        <path class="cls-2" d="M1568.6,199.4h18.8c3.1,0,5.6.5,7.7,1.4,3.8,1.7,5.7,5,5.7,9.7s-.5,4.5-1.6,6.1c-1,1.6-2.4,2.8-4.3,3.8,1.6.7,2.8,1.5,3.7,2.6.8,1.1,1.3,2.8,1.4,5.2l.2,5.6c0,1.6.2,2.8.4,3.5.3,1.3.9,2.1,1.8,2.5v.9h-6.9c-.2-.4-.3-.8-.5-1.4-.1-.6-.2-1.6-.3-3.3l-.3-6.9c-.1-2.7-1.1-4.5-2.9-5.4-1.1-.5-2.7-.8-4.9-.8h-12.3v17.7h-5.6v-41.3h0l-.1.1h0ZM1586.8,218.3c2.6,0,4.6-.5,6.1-1.6s2.2-2.9,2.2-5.7-1.1-4.9-3.1-6c-1.1-.5-2.6-.9-4.5-.9h-13.3v14.1h12.6v.1h0Z"/>
        <path class="cls-2" d="M1652.1,199.4v4.9h-13.9v36.4h-5.7v-36.4h-13.9v-4.9h33.5Z"/>
        <path class="cls-2" d="M1676.8,199.4v25.5c0,3,.6,5.5,1.7,7.5,1.7,3,4.5,4.5,8.5,4.5s8-1.6,9.8-4.9c.9-1.8,1.4-4.1,1.4-7.1v-25.5h5.7v23.2c0,5.1-.7,9-2.1,11.7-2.5,5-7.3,7.5-14.3,7.5s-11.7-2.5-14.3-7.5c-1.4-2.7-2.1-6.6-2.1-11.7v-23.2h5.7Z"/>
        <path class="cls-2" d="M1725.9,199.4h6.6l20.6,33.4v-33.4h5.4v41.3h-6.3l-20.9-33.3v33.3h-5.4v-41.3h0Z"/>
        <path class="cls-2" d="M1782.2,199.4h5.7v41.3h-5.7v-41.3Z"/>
        <path class="cls-2" d="M1840.5,199.4v4.9h-13.9v36.4h-5.7v-36.4h-13.9v-4.9h33.5Z"/>
        <path class="cls-2" d="M1860.5,199.4h5.7v41.3h-5.7v-41.3Z"/>
        <path class="cls-2" d="M1889.2,199.4h30v5.1h-24.5v12.6h22.6v4.8h-22.6v14h24.9v4.9h-30.4v-41.3h0v-.1Z"/>
        <path class="cls-2" d="M1944.3,227.3c.1,2.3.7,4.2,1.6,5.7,1.8,2.8,4.9,4.1,9.4,4.1s3.9-.3,5.5-.9c3.2-1.2,4.8-3.2,4.8-6.2s-.7-3.8-2.1-4.8c-1.4-.9-3.5-1.7-6.5-2.4l-5.4-1.3c-3.5-.8-6.1-1.8-7.5-2.7-2.6-1.7-3.8-4.3-3.8-7.7s1.2-6.8,3.7-9.1c2.5-2.4,6-3.6,10.6-3.6s7.8,1.1,10.7,3.1c2.9,2.1,4.4,5.4,4.4,10h-5.2c-.3-2.2-.8-3.9-1.7-5.1-1.6-2.2-4.4-3.2-8.3-3.2s-5.4.7-6.8,2.1-2.1,3-2.1,4.8.8,3.5,2.4,4.4c1.1.6,3.5,1.4,7.3,2.2l5.6,1.3c2.7.6,4.8,1.5,6.3,2.6,2.5,1.9,3.8,4.7,3.8,8.4s-1.6,7.8-4.8,9.8c-3.3,2-7,2.9-11.3,2.9s-8.9-1.3-11.8-3.9c-2.8-2.6-4.2-6.1-4.2-10.6h5.3l.1.1h0Z"/>
        <path class="cls-2" d="M1009.4,8.5h-44.5l-63.7,62.4V8.5h-33.9v151.4h33.9v-50.6l16.4-15.5h0c0,.1,24.3-22.7,24.3-22.7v-.2c-.1,0,67.5-62.4,67.5-62.4h0ZM950.3,81.6l-24.4,23,42.6,55.4h44.3l-62.5-78.4h0Z"/>
        <path class="cls-2" d="M1147.1,93.8h-80.1v38.9h91.3v27.2h-125V8.6h121v26.8h-87.3v32.2h80.1v26.3h0v-.1Z"/>
        <path class="cls-2" d="M1318.3,8.5l-55.2,94.5v56.9h-34.4v-56.9l-57.1-94.5h40.6l34.2,65.9,32.8-65.9s39.1,0,39.1,0Z"/>
        <path class="cls-2" d="M1454.4,148.6c-12.3,10.3-28,15.5-47.2,15.5s-42.4-7-56-21-20.4-33.3-20.4-57.7,7.7-46.8,23.2-61.1c13.4-12.5,30.5-18.7,51.3-18.7s48,8.4,60.9,25c7.1,9.4,10.9,18.8,11.4,28.2h-34.4c-2.2-7.3-5.1-12.7-8.6-16.4-6.3-6.6-15.6-9.9-27.9-9.9s-22.4,4.6-29.7,13.9c-7.2,9.3-10.8,22.4-10.8,39.4s3.8,29.7,11.5,38.2,17.4,12.7,29.2,12.7,21.3-3.6,27.7-10.9c3.5-3.9,6.4-9.8,8.7-17.6h34.1c-3,16.5-10.7,29.9-22.9,40.3h0l-.1.1h0Z"/>
        <path class="cls-2" d="M1576.4,164.1c-23.6,0-41.6-5.9-54.1-17.7-16.7-14.4-25.1-35.3-25.1-62.4s8.3-48.5,25.1-62.5c12.5-11.8,30.5-17.7,54.1-17.7s41.6,5.9,54.1,17.7c16.6,13.9,25,34.7,25,62.5s-8.3,48-25,62.4c-12.5,11.8-30.4,17.7-54.1,17.7ZM1609,123.5c8-9.2,12-22.4,12-39.5s-4-30.1-12-39.4c-8-9.3-18.8-13.9-32.5-13.9s-24.5,4.6-32.7,13.9c-8.1,9.2-12.2,22.4-12.2,39.5s4.1,30.2,12.2,39.5c8.1,9.2,19,13.9,32.7,13.9s24.6-4.7,32.6-13.9h0l-.1-.1Z"/>
        <path class="cls-2" d="M1752.8,159.9h-71.1V8.6h71.1c10.2.2,18.7,1.2,25.5,3.3,11.6,3.5,20.9,9.9,28.1,19.2,5.7,7.5,9.7,15.7,11.8,24.4,2.1,8.8,3.2,17.1,3.2,25,0,20.1-4.4,37.2-13.2,51.2-12,18.8-30.4,28.2-55.3,28.2h-.1ZM1778.4,47.2c-5.3-8.2-15.8-12.3-31.5-12.3h-31.8v98.8h31.8c16.3,0,27.6-7.4,34-22.1,3.5-8.1,5.2-17.7,5.2-28.9,0-15.4-2.6-27.3-7.8-35.5h.1Z"/>
        <path class="cls-2" d="M1962.1,93.8h-80.1v38.9h91.3v27.2h-125V8.6h121v26.8h-87.3v32.2h80.1v26.3h0v-.1Z"/>
        <path class="cls-3" d="M593.5.1l-88.4,109.9V.1h88.4Z"/>
        <path class="cls-3" d="M788.9.1h-132.9l-93.8,109.9-34.1,40.9-23.1,27.7v90.2s.2.1.2.2h94.2c0-.1.1-.3.2-.4l-55.7-91.9,34.6-40.9,83.6,132.9.2.2h126.7c15.3,0,27.7-12.4,27.7-27.6V27.7c0-15.3-12.3-27.7-27.6-27.7h0l-.2.1Z"/>
        <path class="cls-3" d="M457.3,268.9V.1h-27.3c-15.3,0-27.7,12.4-27.7,27.6v213.6c0,15.3,12.4,27.6,27.7,27.6h27.3Z"/>
        <path class="cls-2" d="M389.8,94.7v85.4c0,1.9-1.5,3.4-3.5,3.4H15.8c-8.7,0-15.8-7-15.8-15.8v-66.5c0-8.7,7-15.8,15.8-15.8h364.7c-4.1,5.4-46.8,57.8-145.8,68-63.7,6.5-106.8-4.5-125.2-9.3l-.8-.2c-64.1-16.5-93.6,16-94.8,17.4-2.3,2.7-2.1,6.7.6,9.1,1.2,1.1,2.8,1.6,4.4,1.6s3.6-.7,4.8-2.1c1-1.2,25.8-27.7,81.8-13.4l.8.2c19.1,4.9,63.8,16.5,129.9,9.7,99.8-10.4,144.9-60.6,153.8-71.7h-.2Z"/>
        <g class="cls-1">
          <g class="cls-1">
            <path class="cls-3" d="M2008.7,47.9V1.2h10.7v19h26.2V1.2h10.7v46.7h-10.7v-20.1h-26.2v20.1h-10.7Z"/>
          </g>
          <g class="cls-1">
            <path class="cls-2" d="M2011.2,115.9v-46.7h43.9v7.6h-33.2v11.5h29.6v7.6h-29.6v12.5h33.7v7.6h-44.4v-.1h0Z"/>
            <path class="cls-2" d="M2015.4,184v-46.7h10.7v39h28.2v7.7h-38.9Z"/>
            <path class="cls-2" d="M2011.3,252.1v-46.7h28.2c4.2,0,7.6.6,10.3,1.8,2.7,1.2,4.7,3,6.1,5.2,1.4,2.2,2,4.9,2,8s-.7,5.7-2.1,8c-1.4,2.3-3.5,4-6.4,5.3-2.8,1.2-6.3,1.9-10.5,1.9h-17v16.6h-10.7l.1-.1h0ZM2021.9,227.9h16.6c2.7,0,4.9-.7,6.4-2s2.3-3.2,2.3-5.5-.3-2.9-1-4-1.6-1.9-2.9-2.5-2.8-.9-4.8-.9h-16.6v15-.1Z"/>
          </g>
        </g>
      </g>
    </g>
  </g>
</svg>