<?xml version="1.0" encoding="UTF-8"?>
<svg id="Layer_2" data-name="Layer 2" xmlns="http://www.w3.org/2000/svg" viewBox="0 0 2073.52 278.55">
  <defs>
    <style>
      .cls-1, .cls-2 {
        fill: #4ae66c;
      }

      .cls-3, .cls-4, .cls-2 {
        isolation: isolate;
      }

      .cls-4, .cls-2 {
        font-family: Archivo-SemiBold, Archivo;
        font-size: 82px;
        font-variation-settings: 'wght' 600, 'wdth' 100;
        font-weight: 600;
        glyph-orientation-vertical: 0deg;
        text-orientation: upright;
        writing-mode: tb;
      }
    </style>
  </defs>
  <g id="Layer_2-2" data-name="Layer 2">
    <g id="Layer_1-2" data-name="Layer 1-2">
      <path d="M872.91,208.9v25.52c0,2.99.58,5.48,1.71,7.49,1.67,2.99,4.51,4.51,8.51,4.51,4.78,0,8.04-1.63,9.75-4.85.93-1.74,1.4-4.11,1.4-7.1v-25.52h5.67v23.18c0,5.09-.7,8.97-2.06,11.73-2.53,4.97-7.27,7.49-14.29,7.49s-11.73-2.48-14.26-7.49c-1.36-2.72-2.06-6.64-2.06-11.73v-23.18h5.63v-.04h0Z"/>
      <path d="M922,208.9h6.6l20.58,33.36v-33.36h5.36v41.29h-6.29l-20.9-33.32v33.32h-5.36v-41.29h.01Z"/>
      <path d="M977.11,208.9h5.59v36.39h20.73v4.93h-26.33v-41.32h.01Z"/>
      <path d="M1056.68,214.81c2.76,3.65,4.12,8.31,4.12,14.02,0,6.18-1.56,11.3-4.7,15.38-3.69,4.78-8.89,7.19-15.73,7.19-6.36,0-11.34-2.1-14.99-6.29-3.26-4.04-4.85-9.17-4.85-15.34,0-5.59,1.4-10.37,4.16-14.33,3.57-5.09,8.82-7.65,15.81-7.65s12.66,2.33,16.19,7.03h-.01ZM1051.75,241.1c2.21-3.54,3.3-7.61,3.3-12.2,0-4.85-1.28-8.78-3.81-11.73-2.52-2.95-6.02-4.43-10.41-4.43s-7.77,1.48-10.45,4.39c-2.72,2.95-4.04,7.26-4.04,12.97,0,4.58,1.16,8.43,3.45,11.58,2.33,3.15,6.06,4.7,11.27,4.7,4.89.04,8.46-1.75,10.68-5.28h.01Z"/>
      <path d="M1110.16,211.89c2.83,2.76,4.43,5.91,4.74,9.4h-5.44c-.63-2.68-1.83-4.78-3.61-6.33-1.82-1.55-4.35-2.33-7.65-2.33-4,0-7.22,1.44-9.67,4.27-2.45,2.88-3.69,7.27-3.69,13.17,0,4.85,1.13,8.78,3.34,11.77,2.21,3.03,5.52,4.51,9.94,4.51,4.04,0,7.15-1.59,9.24-4.73,1.13-1.67,1.94-3.85,2.53-6.57h5.44c-.47,4.35-2.06,8.01-4.78,10.95-3.22,3.54-7.61,5.32-13.13,5.32-4.74,0-8.74-1.44-11.96-4.35-4.23-3.85-6.36-9.79-6.36-17.83,0-6.1,1.59-11.1,4.78-14.99,3.45-4.23,8.19-6.37,14.25-6.37,5.2,0,9.2,1.36,12.04,4.11h-.01Z"/>
      <path d="M1136.06,208.9h5.44v20.2l20.66-20.2h7.81l-17.63,16.66,18.02,24.63h-7.3l-14.8-20.74-6.72,6.37v14.41h-5.44v-41.32h-.04Z"/>
      <path d="M1189.27,208.9h5.67v41.29h-5.67v-41.29Z"/>
      <path d="M1217.54,208.9h6.6l20.58,33.36v-33.36h5.36v41.29h-6.29l-20.9-33.32v33.32h-5.36v-41.29h.01Z"/>
      <path d="M1300.14,210.07c4.04,2.18,6.53,5.94,7.42,11.34h-5.55c-.66-3.03-2.02-5.2-4.11-6.6-2.1-1.4-4.7-2.06-7.85-2.06-3.72,0-6.91,1.44-9.47,4.31s-3.84,7.15-3.84,12.82c0,4.89,1.05,8.89,3.18,12,2.1,3.07,5.55,4.62,10.33,4.62,3.65,0,6.68-1.09,9.08-3.26,2.41-2.18,3.61-5.67,3.69-10.48h-12.93v-4.63h18.14v22.1h-3.61l-1.36-5.32c-1.86,2.1-3.49,3.54-4.97,4.31-2.41,1.4-5.47,2.1-9.2,2.1-4.82,0-8.93-1.59-12.43-4.74-3.77-3.96-5.67-9.44-5.67-16.35s1.86-12.43,5.56-16.51c3.49-3.89,8.04-5.86,13.63-5.86,3.88-.04,7.18.7,9.98,2.21h-.02Z"/>
      <path d="M1394.48,214.81c2.72,3.65,4.11,8.31,4.11,14.02,0,6.18-1.55,11.3-4.7,15.38-3.69,4.78-8.89,7.19-15.73,7.19-6.37,0-11.34-2.1-14.99-6.29-3.26-4.04-4.85-9.17-4.85-15.34,0-5.59,1.4-10.37,4.16-14.33,3.57-5.09,8.81-7.65,15.81-7.65s12.7,2.33,16.19,7.03h0ZM1389.54,241.1c2.21-3.54,3.3-7.61,3.3-12.2,0-4.85-1.28-8.78-3.81-11.73s-6.02-4.43-10.41-4.43-7.77,1.48-10.45,4.39c-2.72,2.95-4.04,7.26-4.04,12.97,0,4.58,1.17,8.43,3.46,11.58,2.33,3.15,6.06,4.7,11.26,4.7,4.93.04,8.51-1.75,10.68-5.28h.01Z"/>
      <path d="M1419.33,208.9h18.48c3.65,0,6.6,1.05,8.85,3.11,2.26,2.06,3.38,4.97,3.38,8.73,0,3.22-1.01,6.02-2.99,8.43-2.02,2.41-5.09,3.57-9.2,3.57h-12.9v17.47h-5.59v-41.32h-.04.01ZM1441.04,214.58c-1.24-.58-2.91-.85-5.05-.85h-11.07v14.33h11.07c2.48,0,4.51-.54,6.06-1.59s2.33-2.95,2.33-5.67c0-3.07-1.13-5.13-3.34-6.21h0Z"/>
      <path d="M1463.6,209.45h18.49c3.65,0,6.6,1.05,8.85,3.1,2.25,2.06,3.38,4.97,3.38,8.74,0,3.22-1.01,6.02-2.99,8.43-2.02,2.41-5.08,3.57-9.2,3.57h-12.89v17.47h-5.59v-41.32h-.05ZM1485.32,215.12c-1.24-.58-2.92-.85-5.05-.85h-11.07v14.33h11.07c2.49,0,4.51-.55,6.06-1.59,1.55-1.05,2.33-2.95,2.33-5.67,0-3.07-1.13-5.13-3.34-6.21h0Z"/>
      <path d="M1543.64,214.77c2.72,3.65,4.12,8.31,4.12,14.02,0,6.18-1.56,11.3-4.7,15.38-3.69,4.78-8.9,7.18-15.73,7.18-6.37,0-11.34-2.09-14.99-6.29-3.26-4.04-4.85-9.16-4.85-15.34,0-5.59,1.4-10.37,4.16-14.33,3.57-5.08,8.82-7.65,15.81-7.65s12.7,2.33,16.19,7.03h-.01ZM1538.71,241.06c2.21-3.53,3.3-7.61,3.3-12.19,0-4.85-1.28-8.78-3.81-11.73-2.52-2.95-6.02-4.43-10.41-4.43s-7.77,1.47-10.45,4.39c-2.68,2.91-4.04,7.26-4.04,12.97,0,4.58,1.16,8.43,3.45,11.57,2.33,3.15,6.06,4.7,11.27,4.7,4.93.04,8.46-1.74,10.68-5.28h.01Z"/>
      <path d="M1568.62,208.87h18.76c3.11,0,5.64.46,7.65,1.36,3.81,1.74,5.71,5.01,5.71,9.74,0,2.49-.51,4.51-1.55,6.06-1.01,1.59-2.45,2.83-4.27,3.8,1.59.66,2.83,1.52,3.65,2.6.81,1.09,1.28,2.8,1.36,5.2l.19,5.55c.04,1.59.19,2.76.39,3.54.35,1.32.93,2.14,1.79,2.53v.93h-6.88c-.19-.35-.35-.82-.47-1.36-.11-.55-.19-1.64-.27-3.27l-.35-6.88c-.11-2.68-1.09-4.51-2.91-5.43-1.05-.51-2.68-.78-4.9-.78h-12.31v17.71h-5.59v-41.32.02ZM1586.79,227.78c2.56,0,4.58-.54,6.06-1.59,1.47-1.05,2.21-2.95,2.21-5.67,0-2.95-1.05-4.93-3.11-6.02-1.13-.54-2.6-.85-4.46-.85h-13.28v14.1h12.58v.04h0Z"/>
      <path d="M1652.08,208.87v4.93h-13.91v36.39h-5.67v-36.39h-13.91v-4.93h33.49Z"/>
      <path d="M1676.77,208.87v25.52c0,2.99.58,5.47,1.71,7.49,1.67,2.99,4.51,4.51,8.51,4.51,4.78,0,8.04-1.63,9.75-4.85.93-1.75,1.4-4.12,1.4-7.11v-25.52h5.67v23.19c0,5.09-.7,8.97-2.06,11.73-2.53,4.97-7.27,7.49-14.29,7.49s-11.73-2.48-14.26-7.49c-1.36-2.72-2.06-6.64-2.06-11.73v-23.19h5.63v-.04h0Z"/>
      <path d="M1725.86,208.87h6.6l20.58,33.36v-33.36h5.36v41.28h-6.29l-20.9-33.32v33.32h-5.36v-41.28h.01Z"/>
      <path d="M1782.22,208.87h5.67v41.28h-5.67v-41.28Z"/>
      <path d="M1840.51,208.87v4.93h-13.91v36.39h-5.67v-36.39h-13.91v-4.93h33.49Z"/>
      <path d="M1860.47,208.87h5.67v41.28h-5.67v-41.28Z"/>
      <path d="M1889.25,208.87h29.98v5.05h-24.51v12.55h22.64v4.78h-22.64v14.02h24.93v4.93h-30.37v-41.32h-.04.01Z"/>
      <path d="M1944.32,236.83c.12,2.33.66,4.23,1.59,5.71,1.79,2.76,4.93,4.11,9.44,4.11,2.02,0,3.88-.31,5.52-.9,3.22-1.16,4.81-3.22,4.81-6.25,0-2.25-.7-3.84-2.06-4.82-1.4-.93-3.54-1.74-6.48-2.44l-5.44-1.28c-3.54-.82-6.06-1.75-7.49-2.72-2.56-1.71-3.81-4.31-3.81-7.73,0-3.73,1.24-6.76,3.73-9.13,2.48-2.36,6.02-3.57,10.6-3.57,4.2,0,7.81,1.05,10.72,3.15,2.95,2.1,4.43,5.44,4.43,10.02h-5.24c-.27-2.21-.85-3.92-1.71-5.09-1.63-2.17-4.43-3.22-8.31-3.22-3.15,0-5.44.7-6.83,2.09s-2.06,2.99-2.06,4.82c0,2.02.82,3.49,2.45,4.43,1.05.58,3.49,1.36,7.27,2.25l5.59,1.32c2.72.62,4.78,1.52,6.26,2.6,2.53,1.94,3.81,4.74,3.81,8.39,0,4.58-1.64,7.84-4.85,9.83-3.27,1.98-7.03,2.95-11.3,2.95-5.01,0-8.93-1.32-11.77-3.92-2.83-2.6-4.23-6.14-4.16-10.6h5.32-.03Z"/>
      <path d="M1009.42,18.02h-44.54l-63.69,62.38V18.02h-33.9v151.42h33.9v-50.64l16.39-15.49.08.11,24.27-22.83-.11-.19,67.61-62.38h-.01ZM950.35,91.08l-24.43,22.99,42.64,55.42h44.28l-62.49-78.41h0Z"/>
      <path d="M1147.06,103.31h-80.12v38.91h91.31v27.22h-125.02V18.07h120.97v26.8h-87.3v32.16h80.12v26.29h.04Z"/>
      <path d="M1318.29,18.02l-55.19,94.49v56.9h-34.45v-56.9l-57.09-94.49h40.63l34.25,65.95,32.78-65.95h39.07,0Z"/>
      <path d="M1454.37,158.15c-12.31,10.33-28.04,15.49-47.23,15.49-23.72,0-42.37-6.99-55.96-20.97-13.59-14.02-20.39-33.28-20.39-57.71,0-26.45,7.73-46.8,23.19-61.13,13.43-12.46,30.52-18.68,51.26-18.68,27.77,0,48.04,8.35,60.9,25.05,7.07,9.4,10.88,18.8,11.42,28.23h-34.45c-2.25-7.26-5.13-12.74-8.62-16.43-6.26-6.56-15.57-9.86-27.89-9.86s-22.41,4.62-29.67,13.9c-7.22,9.29-10.83,22.41-10.83,39.38s3.81,29.71,11.46,38.18c7.65,8.47,17.36,12.7,29.16,12.7s21.29-3.61,27.66-10.87c3.49-3.89,6.41-9.75,8.73-17.56h34.14c-3.03,16.51-10.65,29.94-22.88,40.28h0Z"/>
      <path d="M1576.43,173.64c-23.57,0-41.59-5.91-54.06-17.67-16.7-14.45-25.09-35.26-25.09-62.45s8.35-48.55,25.09-62.45c12.46-11.77,30.48-17.67,54.06-17.67s41.59,5.91,54.06,17.67c16.62,13.9,24.97,34.72,24.97,62.45s-8.31,48-24.97,62.45c-12.47,11.81-30.45,17.67-54.06,17.67ZM1609.01,132.98c8-9.24,11.96-22.41,11.96-39.46s-4-30.1-12.04-39.38c-8-9.28-18.83-13.9-32.51-13.9s-24.54,4.62-32.66,13.86c-8.11,9.24-12.19,22.41-12.19,39.45s4.08,30.22,12.19,39.46c8.12,9.24,19.03,13.86,32.66,13.86,13.67-.04,24.55-4.66,32.58-13.9h.01Z"/>
      <path d="M1752.82,169.45h-71.07V18.07h71.07c10.21.16,18.72,1.24,25.52,3.3,11.57,3.49,20.93,9.9,28.08,19.22,5.74,7.53,9.67,15.69,11.77,24.43,2.1,8.78,3.15,17.13,3.15,25.05,0,20.12-4.39,37.17-13.2,51.15-11.96,18.79-30.37,28.23-55.3,28.23h-.02ZM1778.45,56.67c-5.32-8.23-15.77-12.31-31.46-12.31h-31.77v98.8h31.77c16.28,0,27.61-7.38,34.02-22.09,3.49-8.08,5.24-17.71,5.24-28.86.04-15.42-2.6-27.26-7.81-35.53h.01Z"/>
      <path d="M1962.07,103.31h-80.12v38.91h91.3v27.22h-125.02V18.07h120.98v26.8h-87.31v32.16h80.12v26.29h.05Z"/>
      <path class="cls-1" d="M593.45,9.56l-88.39,109.91V9.56h88.39Z"/>
      <path class="cls-1" d="M788.91,9.56h-132.9l-93.83,109.91-34.06,40.9-23.11,27.73v90.25c.08.08.16.12.23.2h94.18c.08-.12.11-.27.19-.39l-55.73-91.89,34.57-40.9,83.57,132.94.19.19h126.65c15.3,0,27.65-12.39,27.65-27.65V37.25c.04-15.3-12.31-27.69-27.61-27.69h0Z"/>
      <path class="cls-1" d="M457.33,278.42V9.56h-27.34c-15.3,0-27.73,12.39-27.73,27.65v213.6c0,15.3,12.43,27.65,27.73,27.65h27.27s.04,0,.08-.04h0Z"/>
      <path d="M389.8,104.24v85.4c0,1.9-1.55,3.45-3.46,3.45H15.77c-8.74,0-15.77-7.03-15.77-15.77v-66.53c0-8.74,7.03-15.81,15.77-15.81h364.71c-4.11,5.4-46.8,57.83-145.83,67.96-63.73,6.53-106.84-4.54-125.24-9.32l-.78-.2c-64.12-16.54-93.56,15.96-94.8,17.4-2.33,2.68-2.09,6.72.58,9.13,1.24,1.13,2.8,1.63,4.35,1.63,1.75,0,3.57-.7,4.82-2.14,1.05-1.16,25.79-27.73,81.79-13.4l.78.19c19.07,4.93,63.81,16.47,129.87,9.71,99.77-10.37,144.94-60.55,153.79-71.73v.03Z"/>
      <g class="cls-3">
        <text class="cls-2" transform="translate(2032.52 0) scale(1 .83)"><tspan x="0" y="0">H</tspan></text>
        <text class="cls-4" transform="translate(2032.52 68.06) scale(1 .83)"><tspan x="0" y="0">ELP</tspan></text>
      </g>
    </g>
  </g>
</svg>