<?xml version="1.0" encoding="UTF-8"?>
<svg id="Layer_2" data-name="Layer 2" xmlns="http://www.w3.org/2000/svg" viewBox="0 0 430 426.1">
  <defs>
    <style>
      .cls-1 {
        font-family: Archivo-SemiBold, Archivo;
        font-size: 67.94px;
        font-variation-settings: 'wght' 600, 'wdth' 100;
        font-weight: 600;
      }

      .cls-1, .cls-2 {
        isolation: isolate;
      }

      .cls-3 {
        fill: #0b41e4;
      }

      .cls-4 {
        letter-spacing: -.05em;
      }
    </style>
  </defs>
  <g id="Layer_2-2" data-name="Layer 2">
    <g id="Layer_1-2" data-name="Layer 1-2">
      <path class="cls-3" d="M190.83,0l-71.65,102.24V0h71.65Z"/>
      <path class="cls-3" d="M349.27,0h-107.73l-76.06,102.24-27.61,38.04-18.73,25.79v83.95c.06.07.13.11.19.18h76.34c.06-.11.09-.25.16-.36l-45.18-85.48,28.02-38.04,67.75,123.66.16.18h102.66c12.4,0,22.41-11.52,22.41-25.72V25.76c.03-14.23-9.98-25.76-22.39-25.76h0Z"/>
      <path class="cls-3" d="M80.48,250.1V0h-22.17c-12.4,0-22.48,11.53-22.48,25.72v198.7c0,14.23,10.07,25.72,22.48,25.72h22.1s.03,0,.06-.04h.01Z"/>
      <g class="cls-2">
        <text class="cls-1" transform="translate(106.19 398.51) scale(.98 1)"><tspan x="0" y="0">HEL</tspan><tspan class="cls-4" x="134.12" y="0">P</tspan></text>
      </g>
      <path d="M55.26,275.35h-17.32l-24.76,23.36v-23.36H0v56.7h13.18v-18.96l6.37-5.8.03.04,9.44-8.55-.04-.07,26.29-23.36h-.01ZM32.3,302.71l-9.5,8.61,16.58,20.75h17.21l-24.3-29.36h.01Z"/>
      <path d="M108.77,307.29h-31.15v14.57h35.5v10.19h-48.61v-56.68h47.03v10.03h-33.94v12.04h31.15v9.84h.02Z"/>
      <path d="M175.35,275.35l-21.46,35.38v21.3h-13.39v-21.3l-22.2-35.38h15.79l13.32,24.69,12.75-24.69h15.19Z"/>
      <path d="M228.26,327.82c-4.79,3.87-10.9,5.8-18.36,5.8-9.22,0-16.47-2.62-21.76-7.85-5.29-5.25-7.93-12.46-7.93-21.61,0-9.9,3.01-17.52,9.02-22.89,5.22-4.67,11.87-6.99,19.93-6.99,10.8,0,18.68,3.13,23.68,9.38,2.75,3.52,4.23,7.04,4.44,10.57h-13.39c-.87-2.72-1.99-4.77-3.35-6.15-2.43-2.46-6.05-3.69-10.84-3.69s-8.71,1.73-11.54,5.21c-2.81,3.48-4.21,8.39-4.21,14.75s1.48,11.13,4.45,14.3c2.97,3.17,6.75,4.75,11.34,4.75s8.28-1.35,10.75-4.07c1.36-1.45,2.49-3.65,3.4-6.57h13.27c-1.18,6.18-4.14,11.21-8.89,15.08v-.02Z"/>
      <path d="M275.71,333.62c-9.17,0-16.17-2.21-21.02-6.62-6.49-5.41-9.75-13.2-9.75-23.38s3.25-18.18,9.75-23.38c4.85-4.41,11.85-6.62,21.02-6.62s16.17,2.21,21.02,6.62c6.46,5.21,9.71,13,9.71,23.38s-3.23,17.97-9.71,23.38c-4.85,4.42-11.84,6.62-21.02,6.62ZM288.38,318.4c3.11-3.46,4.65-8.39,4.65-14.77s-1.56-11.27-4.68-14.75c-3.11-3.48-7.32-5.21-12.64-5.21s-9.54,1.73-12.7,5.19c-3.15,3.46-4.74,8.39-4.74,14.77s1.59,11.32,4.74,14.77c3.16,3.46,7.4,5.19,12.7,5.19,5.32-.01,9.54-1.75,12.67-5.21v.02Z"/>
      <path d="M344.3,332.05h-27.63v-56.68h27.63c3.97.06,7.28.47,9.92,1.24,4.5,1.31,8.14,3.71,10.92,7.2,2.23,2.82,3.76,5.87,4.57,9.15.82,3.29,1.22,6.41,1.22,9.38,0,7.53-1.71,13.92-5.13,19.15-4.65,7.04-11.81,10.57-21.5,10.57h0ZM354.26,289.82c-2.07-3.08-6.13-4.61-12.23-4.61h-12.35v36.99h12.35c6.33,0,10.74-2.76,13.23-8.27,1.36-3.02,2.04-6.63,2.04-10.81.01-5.77-1.01-10.21-3.04-13.3h0Z"/>
      <path d="M425.65,307.29h-31.15v14.57h35.5v10.19h-48.61v-56.68h47.04v10.03h-33.95v12.04h31.15v9.84h.02Z"/>
    </g>
  </g>
</svg>